<svg xmlns="http://www.w3.org/2000/svg" viewBox="0 0 70 47" width="70" height="47">
	<style>
		tspan { white-space:pre }
		.shp0 { fill: #f5f7fa } 
		.shp1 { fill: #ed5565 } 
		.shp2 { fill: #4a89dc } 
		.shp3 { fill: #ffffff } 
	</style>
	<g id="US">
		<path id="Rounded Rectangle 7 copy" class="shp0" d="M6.36 0L63.64 0C67.15 0 70 2.87 70 6.41L70 40.59C70 44.13 67.15 47 63.64 47L6.36 47C2.85 47 0 44.13 0 40.59L0 6.41C0 2.87 2.85 0 6.36 0Z" />
		<path id="Rectangle 20 copy 2" class="shp1" d="M0 18.99L70 18.99L70 29L0 29L0 18.99Z" />
		<path id="Rectangle 20 copy 4" class="shp1" d="M0 36.99L70 36.99L70 47L0 47L0 36.99Z" />
		<path id="Rectangle 20 copy 5" class="shp1" d="M0 -0.01L70 -0.01L70 10L0 10L0 -0.01Z" />
		<path id="Rectangle 19" class="shp2" d="M0 0L30 0L30 29L0 29L0 0Z" />
		<path id="Shape 7" class="shp3" d="M11.06 22.72C10.28 23.28 9.82 22.97 10.05 22.03L10.89 18.55C11.12 17.62 10.71 16.34 9.99 15.72L7.44 13.52C6.72 12.89 6.91 12.35 7.86 12.33L11.42 12.23C12.37 12.2 13.37 11.42 13.65 10.5L14.76 6.7C15.03 5.78 15.52 5.77 15.84 6.67L17.18 10.42C17.51 11.32 18.55 12.07 19.51 12.08L23.14 12.12C24.09 12.13 24.28 12.65 23.56 13.28L20.8 15.7C20.08 16.33 19.71 17.6 19.97 18.53L20.86 21.59C21.12 22.51 20.68 22.86 19.86 22.35L16.91 20.53C16.1 20.03 14.8 20.07 14.02 20.62L11.06 22.72Z" />
	</g>
</svg>