<svg xmlns="http://www.w3.org/2000/svg" viewBox="0 0 70 47" width="70" height="47">
	<style>
		tspan { white-space:pre }
		.shp0 { fill: #4758a9 } 
		.shp1 { fill: #f6d660 } 
		.shp2 { fill: #ed5565 } 
		.shp3 { fill: #ffffff } 
	</style>
	<g id="VE">
		<path id="Rounded Rectangle 7 copy" class="shp0" d="M6.36 0L63.64 0C67.15 0 70 2.87 70 6.41L70 40.59C70 44.13 67.15 47 63.64 47L6.36 47C2.85 47 0 44.13 0 40.59L0 6.41C0 2.87 2.85 0 6.36 0Z" />
		<path id="Rectangle 1 copy 18" class="shp1" d="M0 0L70 0L70 16L0 16L0 0Z" />
		<path id="Rectangle 1 copy 18" class="shp2" d="M0 31L70 31L70 47L0 47L0 31Z" />
		<path id="Shape 20" class="shp3" d="M33.53 21.56C33.31 21.71 33.18 21.63 33.24 21.37L33.48 20.43C33.55 20.17 33.43 19.82 33.22 19.65L32.5 19.05C32.29 18.88 32.34 18.73 32.62 18.73L33.63 18.7C33.91 18.69 34.19 18.48 34.27 18.23L34.59 17.19C34.67 16.94 34.81 16.94 34.9 17.18L35.28 18.21C35.38 18.45 35.67 18.66 35.95 18.66L36.99 18.67C37.26 18.67 37.31 18.81 37.11 18.99L36.32 19.65C36.11 19.82 36 20.17 36.08 20.42L36.33 21.25C36.41 21.51 36.28 21.6 36.05 21.46L35.2 20.96C34.97 20.83 34.6 20.84 34.38 20.99L33.53 21.56ZM27.63 25.29C27.4 25.44 27.27 25.35 27.34 25.1L27.58 24.15C27.64 23.89 27.53 23.55 27.32 23.37L26.59 22.77C26.38 22.6 26.44 22.46 26.71 22.45L27.73 22.42C28 22.42 28.29 22.2 28.37 21.95L28.69 20.91C28.76 20.66 28.9 20.66 28.99 20.91L29.38 21.93C29.47 22.18 29.77 22.38 30.04 22.38L31.08 22.39C31.35 22.39 31.41 22.54 31.2 22.71L30.41 23.37C30.21 23.54 30.1 23.89 30.18 24.14L30.43 24.98C30.51 25.23 30.38 25.32 30.14 25.19L29.3 24.69C29.07 24.55 28.7 24.56 28.47 24.71L27.63 25.29ZM39.52 25.29C39.3 25.44 39.17 25.35 39.24 25.1L39.48 24.15C39.54 23.89 39.42 23.55 39.22 23.37L38.49 22.77C38.28 22.6 38.34 22.46 38.61 22.45L39.63 22.42C39.9 22.42 40.19 22.2 40.26 21.95L40.58 20.91C40.66 20.66 40.8 20.66 40.89 20.91L41.28 21.93C41.37 22.18 41.67 22.38 41.94 22.38L42.98 22.39C43.25 22.39 43.31 22.54 43.1 22.71L42.31 23.37C42.1 23.54 42 23.89 42.07 24.14L42.33 24.98C42.4 25.23 42.28 25.32 42.04 25.19L41.2 24.69C40.97 24.55 40.59 24.56 40.37 24.71L39.52 25.29ZM43.3 29.92C43.07 30.08 42.94 29.99 43.01 29.74L43.25 28.79C43.31 28.53 43.2 28.18 42.99 28.01L42.26 27.41C42.06 27.24 42.11 27.1 42.38 27.09L43.4 27.06C43.67 27.05 43.96 26.84 44.04 26.59L44.36 25.55C44.43 25.3 44.57 25.3 44.67 25.54L45.05 26.57C45.14 26.81 45.44 27.02 45.71 27.02L46.75 27.03C47.03 27.03 47.08 27.18 46.88 27.35L46.08 28.01C45.88 28.18 45.77 28.53 45.85 28.78L46.1 29.62C46.18 29.87 46.05 29.96 45.82 29.82L44.97 29.33C44.74 29.19 44.37 29.2 44.14 29.35L43.3 29.92ZM24.16 29.92C23.94 30.08 23.81 29.99 23.87 29.74L24.11 28.79C24.18 28.53 24.06 28.18 23.86 28.01L23.13 27.41C22.92 27.24 22.97 27.1 23.25 27.09L24.27 27.06C24.54 27.05 24.82 26.84 24.9 26.59L25.22 25.55C25.3 25.3 25.44 25.3 25.53 25.54L25.91 26.57C26.01 26.81 26.31 27.02 26.58 27.02L27.62 27.03C27.89 27.03 27.95 27.18 27.74 27.35L26.95 28.01C26.74 28.18 26.64 28.53 26.71 28.78L26.97 29.62C27.04 29.87 26.91 29.96 26.68 29.82L25.84 29.33C25.6 29.19 25.23 29.2 25.01 29.35L24.16 29.92Z" />
	</g>
</svg>