<svg xmlns="http://www.w3.org/2000/svg" viewBox="0 0 70 47" width="70" height="47">
	<style>
		tspan { white-space:pre }
		.shp0 { fill: #ed5565 } 
		.shp1 { fill: #f6d660 } 
	</style>
	<g id="VN">
		<path id="Rounded Rectangle 7 copy" class="shp0" d="M6.36 0L63.64 0C67.15 0 70 2.87 70 6.41L70 40.59C70 44.13 67.15 47 63.64 47L6.36 47C2.85 47 0 44.13 0 40.59L0 6.41C0 2.87 2.85 0 6.36 0Z" />
		<path id="Shape 19" class="shp1" d="M30.15 30.96C29.41 31.45 29 31.15 29.24 30.29L30.11 27.11C30.34 26.26 30 25.07 29.34 24.47L27.04 22.38C26.38 21.78 26.57 21.29 27.46 21.29L30.77 21.3C31.66 21.3 32.61 20.61 32.88 19.77L34.02 16.3C34.3 15.45 34.75 15.45 35.03 16.29L36.17 19.78C36.45 20.63 37.4 21.34 38.29 21.38L41.66 21.51C42.55 21.54 42.71 22.03 42.02 22.59L39.39 24.75C38.71 25.31 38.33 26.47 38.55 27.33L39.29 30.17C39.51 31.03 39.09 31.34 38.35 30.85L35.65 29.09C34.91 28.61 33.7 28.61 32.96 29.1L30.15 30.96Z" />
	</g>
</svg>